<svg xmlns="http://www.w3.org/2000/svg" xmlns:xlink="http://www.w3.org/1999/xlink" width="1480" height="819.85"><rect width="1480" height="819.85" rx="5" ry="5" class="a"/><svg y="0%" x="0%"><circle cx="20" cy="20" r="6" fill="#ff5f58"/><circle cx="40" cy="20" r="6" fill="#ffbd2e"/><circle cx="60" cy="20" r="6" fill="#18c132"/></svg><svg height="759.85" viewBox="0 0 144 75.985" width="1440" x="15" xmlns="http://www.w3.org/2000/svg" xmlns:xlink="http://www.w3.org/1999/xlink" y="50"><style>@keyframes q{0%{transform:translateX(0)}.08%{transform:translateX(-144px)}.36%{transform:translateX(-288px)}1.29%{transform:translateX(-432px)}3.61%{transform:translateX(-576px)}3.8%{transform:translateX(-720px)}4.05%{transform:translateX(-864px)}4.35%{transform:translateX(-1008px)}4.56%{transform:translateX(-1152px)}4.9%{transform:translateX(-1296px)}5.07%{transform:translateX(-1440px)}5.38%{transform:translateX(-1584px)}5.71%{transform:translateX(-1728px)}5.98%{transform:translateX(-1872px)}6.34%{transform:translateX(-2016px)}7.06%{transform:translateX(-2160px)}8.3%{transform:translateX(-2304px)}14.12%{transform:translateX(-2448px)}17.19%{transform:translateX(-2592px)}18.7%{transform:translateX(-2736px)}20.99%{transform:translateX(-2880px)}22.61%{transform:translateX(-3024px)}25.57%{transform:translateX(-3312px)}26.03%{transform:translateX(-3456px)}28.34%{transform:translateX(-3600px)}30.27%{transform:translateX(-3744px)}32.39%{transform:translateX(-3888px)}34.51%{transform:translateX(-4032px)}36.63%{transform:translateX(-4176px)}38.96%{transform:translateX(-4320px)}41.08%{transform:translateX(-4464px)}43%{transform:translateX(-4608px)}45.1%{transform:translateX(-4752px)}47.21%{transform:translateX(-4896px)}49.33%{transform:translateX(-5040px)}51.49%{transform:translateX(-5184px)}53.61%{transform:translateX(-5328px)}55.71%{transform:translateX(-5472px)}57.86%{transform:translateX(-5616px)}59.99%{transform:translateX(-5760px)}62.11%{transform:translateX(-5904px)}64.2%{transform:translateX(-6048px)}66.32%{transform:translateX(-6192px)}68.48%{transform:translateX(-6336px)}70.6%{transform:translateX(-6480px)}72.72%{transform:translateX(-6624px)}74.82%{transform:translateX(-6768px)}76.97%{transform:translateX(-6912px)}79.09%{transform:translateX(-7056px)}81.2%{transform:translateX(-7200px)}83.34%{transform:translateX(-7344px)}85.47%{transform:translateX(-7488px)}85.63%{transform:translateX(-7632px)}93.99%{transform:translateX(-7776px)}94.43%{transform:translateX(-7920px)}94.75%{transform:translateX(-8064px)}95.25%{transform:translateX(-8208px)}to{transform:translateX(-8496px)}}.a{fill:#282d35}.g{fill:#fff;font-weight:700}.k{fill:#b9c0cb}.l,.m,.s{fill:#71bef2;font-weight:700}.m,.s{fill:#e88388}.s{fill:#dbab79}</style><g font-size="1.67" font-family="Monaco,Consolas,Menlo,'Bitstream Vera Sans Mono','Powerline Symbols',monospace"><defs><symbol id="1"><text y="1.67" fill="#d75f00" font-weight="700">nleiva</text><text x="7.014" y="1.67" class="g">in</text><text x="10.02" y="1.67" fill="#5f8700" font-weight="700">~/go/src/github.com/nleiva/xroc/example/ipv6/closeloop</text><text x="65.13" y="1.67" class="g">on</text><text x="68.136" y="1.67" fill="#5f5faf" font-weight="700">master</text><text x="75.15" y="1.67" fill="#0087ff" font-weight="700">[!]</text></symbol><symbol id="2"><text y="1.67" class="g">$</text></symbol><symbol id="3"><text y="1.67" class="g">$</text><text x="2.004" y="1.67" class="k">go</text></symbol><symbol id="4"><text y="1.67" class="g">$</text><text x="2.004" y="1.67" class="k">go</text><text x="5.01" y="1.67" class="k">run</text></symbol><symbol id="5"><text y="1.67" class="g">$</text><text x="2.004" y="1.67" class="k">go</text><text x="5.01" y="1.67" class="k">run</text><text x="9.018" y="1.67" class="k">main.go</text></symbol><symbol id="6"><text y="1.67" class="k">1)</text></symbol><symbol id="7"><text y="1.67" class="l">Telemetry</text><text x="10.02" y="1.67" class="k">config</text><text x="17.034" y="1.67" class="k">applied</text><text x="25.05" y="1.67" class="k">on</text><text x="28.056" y="1.67" class="k">2001:420:2cff:1204::5502:2</text><text x="55.11" y="1.67" class="k">(Request</text><text x="64.128" y="1.67" class="k">ID:</text><text x="68.136" y="1.67" class="k">1451)</text></symbol><symbol id="8"><text y="1.67" class="k">Press</text><text x="6.012" y="1.67" class="k">&apos;Enter&apos;</text><text x="14.028" y="1.67" class="k">to</text><text x="17.034" y="1.67" class="k">continue...</text></symbol><symbol id="9"><text y="1.67" class="k">2)</text></symbol><symbol id="10"><text y="1.67" class="l">Interface</text><text x="10.02" y="1.67" class="k">config</text><text x="17.034" y="1.67" class="k">applied</text><text x="25.05" y="1.67" class="k">on</text><text x="28.056" y="1.67" class="k">2001:420:2cff:1204::5502:2</text><text x="55.11" y="1.67" class="k">(Request</text><text x="64.128" y="1.67" class="k">ID:</text><text x="68.136" y="1.67" class="k">1452)</text></symbol><symbol id="11"><text y="1.67" class="k">3)</text></symbol><symbol id="12"><text y="1.67" class="l">BGP</text><text x="4.008" y="1.67" class="k">config</text><text x="11.022" y="1.67" class="k">applied</text><text x="19.038" y="1.67" class="k">on</text><text x="22.044" y="1.67" class="k">2001:420:2cff:1204::5502:2</text><text x="49.098" y="1.67" class="k">(Request</text><text x="58.116" y="1.67" class="k">ID:</text><text x="62.124" y="1.67" class="k">1453)</text></symbol><symbol id="13"><text y="1.67" class="k">4)</text></symbol><symbol id="14"><text y="1.67" class="k">Receiving</text><text x="10.02" y="1.67" class="l">Telemetry</text><text x="20.04" y="1.67" class="k">from</text><text x="25.05" y="1.67" class="k">2001:420:2cff:1204::5502:2</text><text x="52.104" y="1.67" class="k">-&gt;</text></symbol><symbol id="15"><text y="1.67" class="k">Neighbor:</text><text x="10.02" y="1.67" class="k">2001:db8::11,</text><text x="24.048" y="1.67" class="k">Time:</text><text x="30.06" y="1.67" class="k">10:25:51,</text><text x="40.08" y="1.67" class="k">State:</text><text x="47.094" y="1.67" class="m">IDLE</text></symbol><symbol id="16"><text y="1.67" class="k">Neighbor:</text><text x="10.02" y="1.67" class="k">2001:db8::11,</text><text x="24.048" y="1.67" class="k">Time:</text><text x="30.06" y="1.67" class="k">10:26:12,</text><text x="40.08" y="1.67" class="k">State:</text><text x="47.094" y="1.67" fill="#a8cc8c" font-weight="700">ESTABLISHED</text></symbol><symbol id="17"><text x="24.048" y="1.67" class="k">Session</text><text x="32.064" y="1.67" class="k">✅</text></symbol><symbol id="18"><text y="1.67" class="g">$</text><text x="2.004" y="1.67" class="k">exit</text></symbol><symbol id="a"><path fill="transparent" d="M0 0h144v35H0z"/></symbol><symbol id="b"><path fill="#6f7683" d="M0 0h1.102v2.171H0z"/></symbol></defs><path class="a" d="M0 0h144v75.985H0z"/><g style="animation-duration:48.223328s;animation-iteration-count:infinite;animation-name:q;animation-timing-function:steps(1,end)"><svg width="8640"><svg><use xlink:href="#a"/><use xlink:href="#b" x="-.004"/></svg><svg x="144"><use xlink:href="#a"/><use xlink:href="#b" x="-.004"/></svg><svg x="288"><use xlink:href="#a"/><use xlink:href="#b" x="1.996" y="4.317"/><use xlink:href="#1" y="2.171"/><use xlink:href="#2" y="4.342"/></svg><svg x="432"><use xlink:href="#a"/><use xlink:href="#b" x="1.996" y="4.317"/><use xlink:href="#1" y="2.171"/><use xlink:href="#2" y="4.342"/></svg><svg x="576"><use xlink:href="#a"/><use xlink:href="#b" x="2.996" y="4.317"/><use xlink:href="#1" y="2.171"/><text y="6.012" class="g">$</text><text x="2.004" y="6.012" class="k">g</text></svg><svg x="720"><use xlink:href="#a"/><use xlink:href="#b" x="3.996" y="4.317"/><use xlink:href="#1" y="2.171"/><use xlink:href="#3" y="4.342"/></svg><svg x="864"><use xlink:href="#a"/><use xlink:href="#b" x="4.996" y="4.317"/><use xlink:href="#1" y="2.171"/><use xlink:href="#3" y="4.342"/></svg><svg x="1008"><use xlink:href="#a"/><use xlink:href="#b" x="5.996" y="4.317"/><use xlink:href="#1" y="2.171"/><text y="6.012" class="g">$</text><text x="2.004" y="6.012" class="k">go</text><text x="5.01" y="6.012" class="k">r</text></svg><svg x="1152"><use xlink:href="#a"/><use xlink:href="#b" x="6.996" y="4.317"/><use xlink:href="#1" y="2.171"/><text y="6.012" class="g">$</text><text x="2.004" y="6.012" class="k">go</text><text x="5.01" y="6.012" class="k">ru</text></svg><svg x="1296"><use xlink:href="#a"/><use xlink:href="#b" x="7.996" y="4.317"/><use xlink:href="#1" y="2.171"/><use xlink:href="#4" y="4.342"/></svg><svg x="1440"><use xlink:href="#a"/><use xlink:href="#b" x="8.996" y="4.317"/><use xlink:href="#1" y="2.171"/><use xlink:href="#4" y="4.342"/></svg><svg x="1584"><use xlink:href="#a"/><use xlink:href="#b" x="9.996" y="4.317"/><use xlink:href="#1" y="2.171"/><text y="6.012" class="g">$</text><text x="2.004" y="6.012" class="k">go</text><text x="5.01" y="6.012" class="k">run</text><text x="9.018" y="6.012" class="k">m</text></svg><svg x="1728"><use xlink:href="#a"/><use xlink:href="#b" x="10.996" y="4.317"/><use xlink:href="#1" y="2.171"/><text y="6.012" class="g">$</text><text x="2.004" y="6.012" class="k">go</text><text x="5.01" y="6.012" class="k">run</text><text x="9.018" y="6.012" class="k">ma</text></svg><svg x="1872"><use xlink:href="#a"/><use xlink:href="#b" x="11.996" y="4.317"/><use xlink:href="#1" y="2.171"/><text y="6.012" class="g">$</text><text x="2.004" y="6.012" class="k">go</text><text x="5.01" y="6.012" class="k">run</text><text x="9.018" y="6.012" class="k">mai</text></svg><svg x="2016"><use xlink:href="#a"/><use xlink:href="#b" x="12.996" y="4.317"/><use xlink:href="#1" y="2.171"/><text y="6.012" class="g">$</text><text x="2.004" y="6.012" class="k">go</text><text x="5.01" y="6.012" class="k">run</text><text x="9.018" y="6.012" class="k">main</text></svg><svg x="2160"><use xlink:href="#a"/><use xlink:href="#b" x="16.996" y="4.317"/><use xlink:href="#1" y="2.171"/><use xlink:href="#5" y="4.342"/></svg><svg x="2304"><use xlink:href="#a"/><use xlink:href="#b" x="-.004" y="6.488"/><use xlink:href="#1" y="2.171"/><use xlink:href="#5" y="4.342"/></svg><svg x="2448"><use xlink:href="#a"/><use xlink:href="#b" x="27.996" y="13.001"/><use xlink:href="#1" y="2.171"/><use xlink:href="#5" y="4.342"/><use xlink:href="#6" y="8.684"/><use xlink:href="#7" y="10.855"/><use xlink:href="#8" y="13.026"/></svg><svg x="2592"><use xlink:href="#a"/><use xlink:href="#b" x="-.004" y="15.172"/><use xlink:href="#1" y="2.171"/><use xlink:href="#5" y="4.342"/><use xlink:href="#6" y="8.684"/><use xlink:href="#7" y="10.855"/><use xlink:href="#8" y="13.026"/></svg><svg x="2736"><use xlink:href="#a"/><use xlink:href="#b" x="27.996" y="21.685"/><use xlink:href="#1" y="2.171"/><use xlink:href="#5" y="4.342"/><use xlink:href="#6" y="8.684"/><use xlink:href="#7" y="10.855"/><use xlink:href="#8" y="13.026"/><use xlink:href="#9" y="17.368"/><use xlink:href="#10" y="19.539"/><use xlink:href="#8" y="21.71"/></svg><svg x="2880"><use xlink:href="#a"/><use xlink:href="#b" x="-.004" y="23.856"/><use xlink:href="#1" y="2.171"/><use xlink:href="#5" y="4.342"/><use xlink:href="#6" y="8.684"/><use xlink:href="#7" y="10.855"/><use xlink:href="#8" y="13.026"/><use xlink:href="#9" y="17.368"/><use xlink:href="#10" y="19.539"/><use xlink:href="#8" y="21.71"/></svg><svg x="3024"><use xlink:href="#a"/><use xlink:href="#b" x="27.996" y="30.369"/><use xlink:href="#1" y="2.171"/><use xlink:href="#5" y="4.342"/><use xlink:href="#6" y="8.684"/><use xlink:href="#7" y="10.855"/><use xlink:href="#8" y="13.026"/><use xlink:href="#9" y="17.368"/><use xlink:href="#10" y="19.539"/><use xlink:href="#8" y="21.71"/><use xlink:href="#11" y="26.052"/><use xlink:href="#12" y="28.223"/><use xlink:href="#8" y="30.394"/></svg><svg x="3168"><use xlink:href="#a"/><use xlink:href="#b" x="-.004" y="32.54"/><use xlink:href="#1" y="2.171"/><use xlink:href="#5" y="4.342"/><use xlink:href="#6" y="8.684"/><use xlink:href="#7" y="10.855"/><use xlink:href="#8" y="13.026"/><use xlink:href="#9" y="17.368"/><use xlink:href="#10" y="19.539"/><use xlink:href="#8" y="21.71"/><use xlink:href="#11" y="26.052"/><use xlink:href="#12" y="28.223"/><use xlink:href="#8" y="30.394"/></svg><svg x="3312"><use xlink:href="#a"/><use xlink:href="#b" x="-.004" y="41.224"/><use xlink:href="#1" y="2.171"/><use xlink:href="#5" y="4.342"/><use xlink:href="#6" y="8.684"/><use xlink:href="#7" y="10.855"/><use xlink:href="#8" y="13.026"/><use xlink:href="#9" y="17.368"/><use xlink:href="#10" y="19.539"/><use xlink:href="#8" y="21.71"/><use xlink:href="#11" y="26.052"/><use xlink:href="#12" y="28.223"/><use xlink:href="#8" y="30.394"/><use xlink:href="#13" y="34.736"/><use xlink:href="#14" y="36.907"/></svg><svg x="3456"><use xlink:href="#a"/><use xlink:href="#b" x="55.996" y="41.224"/><use xlink:href="#1" y="2.171"/><use xlink:href="#5" y="4.342"/><use xlink:href="#6" y="8.684"/><use xlink:href="#7" y="10.855"/><use xlink:href="#8" y="13.026"/><use xlink:href="#9" y="17.368"/><use xlink:href="#10" y="19.539"/><use xlink:href="#8" y="21.71"/><use xlink:href="#11" y="26.052"/><use xlink:href="#12" y="28.223"/><use xlink:href="#8" y="30.394"/><use xlink:href="#13" y="34.736"/><use xlink:href="#14" y="36.907"/><text y="42.919" class="k">Neighbor:</text><text x="10.02" y="42.919" class="k">2001:db8::11,</text><text x="24.048" y="42.919" class="k">Time:</text><text x="30.06" y="42.919" class="k">10:25:43,</text><text x="40.08" y="42.919" class="k">State:</text><text x="47.094" y="42.919" class="m">IDLE</text></svg><svg x="3600"><use xlink:href="#a"/><use xlink:href="#b" x="55.996" y="41.224"/><use xlink:href="#1" y="2.171"/><use xlink:href="#5" y="4.342"/><use xlink:href="#6" y="8.684"/><use xlink:href="#7" y="10.855"/><use xlink:href="#8" y="13.026"/><use xlink:href="#9" y="17.368"/><use xlink:href="#10" y="19.539"/><use xlink:href="#8" y="21.71"/><use xlink:href="#11" y="26.052"/><use xlink:href="#12" y="28.223"/><use xlink:href="#8" y="30.394"/><use xlink:href="#13" y="34.736"/><use xlink:href="#14" y="36.907"/><text y="42.919" class="k">Neighbor:</text><text x="10.02" y="42.919" class="k">2001:db8::11,</text><text x="24.048" y="42.919" class="k">Time:</text><text x="30.06" y="42.919" class="k">10:25:44,</text><text x="40.08" y="42.919" class="k">State:</text><text x="47.094" y="42.919" class="m">IDLE</text></svg><svg x="3744"><use xlink:href="#a"/><use xlink:href="#b" x="55.996" y="41.224"/><use xlink:href="#1" y="2.171"/><use xlink:href="#5" y="4.342"/><use xlink:href="#6" y="8.684"/><use xlink:href="#7" y="10.855"/><use xlink:href="#8" y="13.026"/><use xlink:href="#9" y="17.368"/><use xlink:href="#10" y="19.539"/><use xlink:href="#8" y="21.71"/><use xlink:href="#11" y="26.052"/><use xlink:href="#12" y="28.223"/><use xlink:href="#8" y="30.394"/><use xlink:href="#13" y="34.736"/><use xlink:href="#14" y="36.907"/><text y="42.919" class="k">Neighbor:</text><text x="10.02" y="42.919" class="k">2001:db8::11,</text><text x="24.048" y="42.919" class="k">Time:</text><text x="30.06" y="42.919" class="k">10:25:45,</text><text x="40.08" y="42.919" class="k">State:</text><text x="47.094" y="42.919" class="m">IDLE</text></svg><svg x="3888"><use xlink:href="#a"/><use xlink:href="#b" x="55.996" y="41.224"/><use xlink:href="#1" y="2.171"/><use xlink:href="#5" y="4.342"/><use xlink:href="#6" y="8.684"/><use xlink:href="#7" y="10.855"/><use xlink:href="#8" y="13.026"/><use xlink:href="#9" y="17.368"/><use xlink:href="#10" y="19.539"/><use xlink:href="#8" y="21.71"/><use xlink:href="#11" y="26.052"/><use xlink:href="#12" y="28.223"/><use xlink:href="#8" y="30.394"/><use xlink:href="#13" y="34.736"/><use xlink:href="#14" y="36.907"/><text y="42.919" class="k">Neighbor:</text><text x="10.02" y="42.919" class="k">2001:db8::11,</text><text x="24.048" y="42.919" class="k">Time:</text><text x="30.06" y="42.919" class="k">10:25:46,</text><text x="40.08" y="42.919" class="k">State:</text><text x="47.094" y="42.919" class="m">IDLE</text></svg><svg x="4032"><use xlink:href="#a"/><use xlink:href="#b" x="55.996" y="41.224"/><use xlink:href="#1" y="2.171"/><use xlink:href="#5" y="4.342"/><use xlink:href="#6" y="8.684"/><use xlink:href="#7" y="10.855"/><use xlink:href="#8" y="13.026"/><use xlink:href="#9" y="17.368"/><use xlink:href="#10" y="19.539"/><use xlink:href="#8" y="21.71"/><use xlink:href="#11" y="26.052"/><use xlink:href="#12" y="28.223"/><use xlink:href="#8" y="30.394"/><use xlink:href="#13" y="34.736"/><use xlink:href="#14" y="36.907"/><text y="42.919" class="k">Neighbor:</text><text x="10.02" y="42.919" class="k">2001:db8::11,</text><text x="24.048" y="42.919" class="k">Time:</text><text x="30.06" y="42.919" class="k">10:25:47,</text><text x="40.08" y="42.919" class="k">State:</text><text x="47.094" y="42.919" class="m">IDLE</text></svg><svg x="4176"><use xlink:href="#a"/><use xlink:href="#b" x="55.996" y="41.224"/><use xlink:href="#1" y="2.171"/><use xlink:href="#5" y="4.342"/><use xlink:href="#6" y="8.684"/><use xlink:href="#7" y="10.855"/><use xlink:href="#8" y="13.026"/><use xlink:href="#9" y="17.368"/><use xlink:href="#10" y="19.539"/><use xlink:href="#8" y="21.71"/><use xlink:href="#11" y="26.052"/><use xlink:href="#12" y="28.223"/><use xlink:href="#8" y="30.394"/><use xlink:href="#13" y="34.736"/><use xlink:href="#14" y="36.907"/><text y="42.919" class="k">Neighbor:</text><text x="10.02" y="42.919" class="k">2001:db8::11,</text><text x="24.048" y="42.919" class="k">Time:</text><text x="30.06" y="42.919" class="k">10:25:48,</text><text x="40.08" y="42.919" class="k">State:</text><text x="47.094" y="42.919" class="m">IDLE</text></svg><svg x="4320"><use xlink:href="#a"/><use xlink:href="#b" x="55.996" y="41.224"/><use xlink:href="#1" y="2.171"/><use xlink:href="#5" y="4.342"/><use xlink:href="#6" y="8.684"/><use xlink:href="#7" y="10.855"/><use xlink:href="#8" y="13.026"/><use xlink:href="#9" y="17.368"/><use xlink:href="#10" y="19.539"/><use xlink:href="#8" y="21.71"/><use xlink:href="#11" y="26.052"/><use xlink:href="#12" y="28.223"/><use xlink:href="#8" y="30.394"/><use xlink:href="#13" y="34.736"/><use xlink:href="#14" y="36.907"/><text y="42.919" class="k">Neighbor:</text><text x="10.02" y="42.919" class="k">2001:db8::11,</text><text x="24.048" y="42.919" class="k">Time:</text><text x="30.06" y="42.919" class="k">10:25:50,</text><text x="40.08" y="42.919" class="k">State:</text><text x="47.094" y="42.919" class="m">IDLE</text></svg><svg x="4464"><use xlink:href="#a"/><use xlink:href="#b" x="55.996" y="41.224"/><use xlink:href="#1" y="2.171"/><use xlink:href="#5" y="4.342"/><use xlink:href="#6" y="8.684"/><use xlink:href="#7" y="10.855"/><use xlink:href="#8" y="13.026"/><use xlink:href="#9" y="17.368"/><use xlink:href="#10" y="19.539"/><use xlink:href="#8" y="21.71"/><use xlink:href="#11" y="26.052"/><use xlink:href="#12" y="28.223"/><use xlink:href="#8" y="30.394"/><use xlink:href="#13" y="34.736"/><use xlink:href="#14" y="36.907"/><use xlink:href="#15" y="41.249"/></svg><svg x="4608"><use xlink:href="#a"/><use xlink:href="#b" x="55.996" y="41.224"/><use xlink:href="#1" y="2.171"/><use xlink:href="#5" y="4.342"/><use xlink:href="#6" y="8.684"/><use xlink:href="#7" y="10.855"/><use xlink:href="#8" y="13.026"/><use xlink:href="#9" y="17.368"/><use xlink:href="#10" y="19.539"/><use xlink:href="#8" y="21.71"/><use xlink:href="#11" y="26.052"/><use xlink:href="#12" y="28.223"/><use xlink:href="#8" y="30.394"/><use xlink:href="#13" y="34.736"/><use xlink:href="#14" y="36.907"/><use xlink:href="#15" y="41.249"/></svg><svg x="4752"><use xlink:href="#a"/><use xlink:href="#b" x="55.996" y="41.224"/><use xlink:href="#1" y="2.171"/><use xlink:href="#5" y="4.342"/><use xlink:href="#6" y="8.684"/><use xlink:href="#7" y="10.855"/><use xlink:href="#8" y="13.026"/><use xlink:href="#9" y="17.368"/><use xlink:href="#10" y="19.539"/><use xlink:href="#8" y="21.71"/><use xlink:href="#11" y="26.052"/><use xlink:href="#12" y="28.223"/><use xlink:href="#8" y="30.394"/><use xlink:href="#13" y="34.736"/><use xlink:href="#14" y="36.907"/><text y="42.919" class="k">Neighbor:</text><text x="10.02" y="42.919" class="k">2001:db8::11,</text><text x="24.048" y="42.919" class="k">Time:</text><text x="30.06" y="42.919" class="k">10:25:52,</text><text x="40.08" y="42.919" class="k">State:</text><text x="47.094" y="42.919" class="m">IDLE</text></svg><svg x="4896"><use xlink:href="#a"/><use xlink:href="#b" x="55.996" y="41.224"/><use xlink:href="#1" y="2.171"/><use xlink:href="#5" y="4.342"/><use xlink:href="#6" y="8.684"/><use xlink:href="#7" y="10.855"/><use xlink:href="#8" y="13.026"/><use xlink:href="#9" y="17.368"/><use xlink:href="#10" y="19.539"/><use xlink:href="#8" y="21.71"/><use xlink:href="#11" y="26.052"/><use xlink:href="#12" y="28.223"/><use xlink:href="#8" y="30.394"/><use xlink:href="#13" y="34.736"/><use xlink:href="#14" y="36.907"/><text y="42.919" class="k">Neighbor:</text><text x="10.02" y="42.919" class="k">2001:db8::11,</text><text x="24.048" y="42.919" class="k">Time:</text><text x="30.06" y="42.919" class="k">10:25:54,</text><text x="40.08" y="42.919" class="k">State:</text><text x="47.094" y="42.919" class="m">IDLE</text></svg><svg x="5040"><use xlink:href="#a"/><use xlink:href="#b" x="55.996" y="41.224"/><use xlink:href="#1" y="2.171"/><use xlink:href="#5" y="4.342"/><use xlink:href="#6" y="8.684"/><use xlink:href="#7" y="10.855"/><use xlink:href="#8" y="13.026"/><use xlink:href="#9" y="17.368"/><use xlink:href="#10" y="19.539"/><use xlink:href="#8" y="21.71"/><use xlink:href="#11" y="26.052"/><use xlink:href="#12" y="28.223"/><use xlink:href="#8" y="30.394"/><use xlink:href="#13" y="34.736"/><use xlink:href="#14" y="36.907"/><text y="42.919" class="k">Neighbor:</text><text x="10.02" y="42.919" class="k">2001:db8::11,</text><text x="24.048" y="42.919" class="k">Time:</text><text x="30.06" y="42.919" class="k">10:25:55,</text><text x="40.08" y="42.919" class="k">State:</text><text x="47.094" y="42.919" class="m">IDLE</text></svg><svg x="5184"><use xlink:href="#a"/><use xlink:href="#b" x="55.996" y="41.224"/><use xlink:href="#1" y="2.171"/><use xlink:href="#5" y="4.342"/><use xlink:href="#6" y="8.684"/><use xlink:href="#7" y="10.855"/><use xlink:href="#8" y="13.026"/><use xlink:href="#9" y="17.368"/><use xlink:href="#10" y="19.539"/><use xlink:href="#8" y="21.71"/><use xlink:href="#11" y="26.052"/><use xlink:href="#12" y="28.223"/><use xlink:href="#8" y="30.394"/><use xlink:href="#13" y="34.736"/><use xlink:href="#14" y="36.907"/><text y="42.919" class="k">Neighbor:</text><text x="10.02" y="42.919" class="k">2001:db8::11,</text><text x="24.048" y="42.919" class="k">Time:</text><text x="30.06" y="42.919" class="k">10:25:56,</text><text x="40.08" y="42.919" class="k">State:</text><text x="47.094" y="42.919" class="m">IDLE</text></svg><svg x="5328"><use xlink:href="#a"/><use xlink:href="#b" x="55.996" y="41.224"/><use xlink:href="#1" y="2.171"/><use xlink:href="#5" y="4.342"/><use xlink:href="#6" y="8.684"/><use xlink:href="#7" y="10.855"/><use xlink:href="#8" y="13.026"/><use xlink:href="#9" y="17.368"/><use xlink:href="#10" y="19.539"/><use xlink:href="#8" y="21.71"/><use xlink:href="#11" y="26.052"/><use xlink:href="#12" y="28.223"/><use xlink:href="#8" y="30.394"/><use xlink:href="#13" y="34.736"/><use xlink:href="#14" y="36.907"/><text y="42.919" class="k">Neighbor:</text><text x="10.02" y="42.919" class="k">2001:db8::11,</text><text x="24.048" y="42.919" class="k">Time:</text><text x="30.06" y="42.919" class="k">10:25:57,</text><text x="40.08" y="42.919" class="k">State:</text><text x="47.094" y="42.919" class="m">IDLE</text></svg><svg x="5472"><use xlink:href="#a"/><use xlink:href="#b" x="55.996" y="41.224"/><use xlink:href="#1" y="2.171"/><use xlink:href="#5" y="4.342"/><use xlink:href="#6" y="8.684"/><use xlink:href="#7" y="10.855"/><use xlink:href="#8" y="13.026"/><use xlink:href="#9" y="17.368"/><use xlink:href="#10" y="19.539"/><use xlink:href="#8" y="21.71"/><use xlink:href="#11" y="26.052"/><use xlink:href="#12" y="28.223"/><use xlink:href="#8" y="30.394"/><use xlink:href="#13" y="34.736"/><use xlink:href="#14" y="36.907"/><text y="42.919" class="k">Neighbor:</text><text x="10.02" y="42.919" class="k">2001:db8::11,</text><text x="24.048" y="42.919" class="k">Time:</text><text x="30.06" y="42.919" class="k">10:25:58,</text><text x="40.08" y="42.919" class="k">State:</text><text x="47.094" y="42.919" class="m">IDLE</text></svg><svg x="5616"><use xlink:href="#a"/><use xlink:href="#b" x="55.996" y="41.224"/><use xlink:href="#1" y="2.171"/><use xlink:href="#5" y="4.342"/><use xlink:href="#6" y="8.684"/><use xlink:href="#7" y="10.855"/><use xlink:href="#8" y="13.026"/><use xlink:href="#9" y="17.368"/><use xlink:href="#10" y="19.539"/><use xlink:href="#8" y="21.71"/><use xlink:href="#11" y="26.052"/><use xlink:href="#12" y="28.223"/><use xlink:href="#8" y="30.394"/><use xlink:href="#13" y="34.736"/><use xlink:href="#14" y="36.907"/><text y="42.919" class="k">Neighbor:</text><text x="10.02" y="42.919" class="k">2001:db8::11,</text><text x="24.048" y="42.919" class="k">Time:</text><text x="30.06" y="42.919" class="k">10:25:59,</text><text x="40.08" y="42.919" class="k">State:</text><text x="47.094" y="42.919" class="m">IDLE</text></svg><svg x="5760"><use xlink:href="#a"/><use xlink:href="#b" x="55.996" y="41.224"/><use xlink:href="#1" y="2.171"/><use xlink:href="#5" y="4.342"/><use xlink:href="#6" y="8.684"/><use xlink:href="#7" y="10.855"/><use xlink:href="#8" y="13.026"/><use xlink:href="#9" y="17.368"/><use xlink:href="#10" y="19.539"/><use xlink:href="#8" y="21.71"/><use xlink:href="#11" y="26.052"/><use xlink:href="#12" y="28.223"/><use xlink:href="#8" y="30.394"/><use xlink:href="#13" y="34.736"/><use xlink:href="#14" y="36.907"/><text y="42.919" class="k">Neighbor:</text><text x="10.02" y="42.919" class="k">2001:db8::11,</text><text x="24.048" y="42.919" class="k">Time:</text><text x="30.06" y="42.919" class="k">10:26:00,</text><text x="40.08" y="42.919" class="k">State:</text><text x="47.094" y="42.919" class="m">IDLE</text></svg><svg x="5904"><use xlink:href="#a"/><use xlink:href="#b" x="55.996" y="41.224"/><use xlink:href="#1" y="2.171"/><use xlink:href="#5" y="4.342"/><use xlink:href="#6" y="8.684"/><use xlink:href="#7" y="10.855"/><use xlink:href="#8" y="13.026"/><use xlink:href="#9" y="17.368"/><use xlink:href="#10" y="19.539"/><use xlink:href="#8" y="21.71"/><use xlink:href="#11" y="26.052"/><use xlink:href="#12" y="28.223"/><use xlink:href="#8" y="30.394"/><use xlink:href="#13" y="34.736"/><use xlink:href="#14" y="36.907"/><text y="42.919" class="k">Neighbor:</text><text x="10.02" y="42.919" class="k">2001:db8::11,</text><text x="24.048" y="42.919" class="k">Time:</text><text x="30.06" y="42.919" class="k">10:26:01,</text><text x="40.08" y="42.919" class="k">State:</text><text x="47.094" y="42.919" class="m">IDLE</text></svg><svg x="6048"><use xlink:href="#a"/><use xlink:href="#b" x="55.996" y="41.224"/><use xlink:href="#1" y="2.171"/><use xlink:href="#5" y="4.342"/><use xlink:href="#6" y="8.684"/><use xlink:href="#7" y="10.855"/><use xlink:href="#8" y="13.026"/><use xlink:href="#9" y="17.368"/><use xlink:href="#10" y="19.539"/><use xlink:href="#8" y="21.71"/><use xlink:href="#11" y="26.052"/><use xlink:href="#12" y="28.223"/><use xlink:href="#8" y="30.394"/><use xlink:href="#13" y="34.736"/><use xlink:href="#14" y="36.907"/><text y="42.919" class="k">Neighbor:</text><text x="10.02" y="42.919" class="k">2001:db8::11,</text><text x="24.048" y="42.919" class="k">Time:</text><text x="30.06" y="42.919" class="k">10:26:02,</text><text x="40.08" y="42.919" class="k">State:</text><text x="47.094" y="42.919" class="m">IDLE</text></svg><svg x="6192"><use xlink:href="#a"/><use xlink:href="#b" x="55.996" y="41.224"/><use xlink:href="#1" y="2.171"/><use xlink:href="#5" y="4.342"/><use xlink:href="#6" y="8.684"/><use xlink:href="#7" y="10.855"/><use xlink:href="#8" y="13.026"/><use xlink:href="#9" y="17.368"/><use xlink:href="#10" y="19.539"/><use xlink:href="#8" y="21.71"/><use xlink:href="#11" y="26.052"/><use xlink:href="#12" y="28.223"/><use xlink:href="#8" y="30.394"/><use xlink:href="#13" y="34.736"/><use xlink:href="#14" y="36.907"/><text y="42.919" class="k">Neighbor:</text><text x="10.02" y="42.919" class="k">2001:db8::11,</text><text x="24.048" y="42.919" class="k">Time:</text><text x="30.06" y="42.919" class="k">10:26:03,</text><text x="40.08" y="42.919" class="k">State:</text><text x="47.094" y="42.919" class="m">IDLE</text></svg><svg x="6336"><use xlink:href="#a"/><use xlink:href="#b" x="55.996" y="41.224"/><use xlink:href="#1" y="2.171"/><use xlink:href="#5" y="4.342"/><use xlink:href="#6" y="8.684"/><use xlink:href="#7" y="10.855"/><use xlink:href="#8" y="13.026"/><use xlink:href="#9" y="17.368"/><use xlink:href="#10" y="19.539"/><use xlink:href="#8" y="21.71"/><use xlink:href="#11" y="26.052"/><use xlink:href="#12" y="28.223"/><use xlink:href="#8" y="30.394"/><use xlink:href="#13" y="34.736"/><use xlink:href="#14" y="36.907"/><text y="42.919" class="k">Neighbor:</text><text x="10.02" y="42.919" class="k">2001:db8::11,</text><text x="24.048" y="42.919" class="k">Time:</text><text x="30.06" y="42.919" class="k">10:26:04,</text><text x="40.08" y="42.919" class="k">State:</text><text x="47.094" y="42.919" class="m">IDLE</text></svg><svg x="6480"><use xlink:href="#a"/><use xlink:href="#b" x="55.996" y="41.224"/><use xlink:href="#1" y="2.171"/><use xlink:href="#5" y="4.342"/><use xlink:href="#6" y="8.684"/><use xlink:href="#7" y="10.855"/><use xlink:href="#8" y="13.026"/><use xlink:href="#9" y="17.368"/><use xlink:href="#10" y="19.539"/><use xlink:href="#8" y="21.71"/><use xlink:href="#11" y="26.052"/><use xlink:href="#12" y="28.223"/><use xlink:href="#8" y="30.394"/><use xlink:href="#13" y="34.736"/><use xlink:href="#14" y="36.907"/><text y="42.919" class="k">Neighbor:</text><text x="10.02" y="42.919" class="k">2001:db8::11,</text><text x="24.048" y="42.919" class="k">Time:</text><text x="30.06" y="42.919" class="k">10:26:05,</text><text x="40.08" y="42.919" class="k">State:</text><text x="47.094" y="42.919" class="m">IDLE</text></svg><svg x="6624"><use xlink:href="#a"/><use xlink:href="#b" x="55.996" y="41.224"/><use xlink:href="#1" y="2.171"/><use xlink:href="#5" y="4.342"/><use xlink:href="#6" y="8.684"/><use xlink:href="#7" y="10.855"/><use xlink:href="#8" y="13.026"/><use xlink:href="#9" y="17.368"/><use xlink:href="#10" y="19.539"/><use xlink:href="#8" y="21.71"/><use xlink:href="#11" y="26.052"/><use xlink:href="#12" y="28.223"/><use xlink:href="#8" y="30.394"/><use xlink:href="#13" y="34.736"/><use xlink:href="#14" y="36.907"/><text y="42.919" class="k">Neighbor:</text><text x="10.02" y="42.919" class="k">2001:db8::11,</text><text x="24.048" y="42.919" class="k">Time:</text><text x="30.06" y="42.919" class="k">10:26:06,</text><text x="40.08" y="42.919" class="k">State:</text><text x="47.094" y="42.919" class="m">IDLE</text></svg><svg x="6768"><use xlink:href="#a"/><use xlink:href="#b" x="55.996" y="41.224"/><use xlink:href="#1" y="2.171"/><use xlink:href="#5" y="4.342"/><use xlink:href="#6" y="8.684"/><use xlink:href="#7" y="10.855"/><use xlink:href="#8" y="13.026"/><use xlink:href="#9" y="17.368"/><use xlink:href="#10" y="19.539"/><use xlink:href="#8" y="21.71"/><use xlink:href="#11" y="26.052"/><use xlink:href="#12" y="28.223"/><use xlink:href="#8" y="30.394"/><use xlink:href="#13" y="34.736"/><use xlink:href="#14" y="36.907"/><text y="42.919" class="k">Neighbor:</text><text x="10.02" y="42.919" class="k">2001:db8::11,</text><text x="24.048" y="42.919" class="k">Time:</text><text x="30.06" y="42.919" class="k">10:26:07,</text><text x="40.08" y="42.919" class="k">State:</text><text x="47.094" y="42.919" class="m">IDLE</text></svg><svg x="6912"><use xlink:href="#a"/><use xlink:href="#b" x="55.996" y="41.224"/><use xlink:href="#1" y="2.171"/><use xlink:href="#5" y="4.342"/><use xlink:href="#6" y="8.684"/><use xlink:href="#7" y="10.855"/><use xlink:href="#8" y="13.026"/><use xlink:href="#9" y="17.368"/><use xlink:href="#10" y="19.539"/><use xlink:href="#8" y="21.71"/><use xlink:href="#11" y="26.052"/><use xlink:href="#12" y="28.223"/><use xlink:href="#8" y="30.394"/><use xlink:href="#13" y="34.736"/><use xlink:href="#14" y="36.907"/><text y="42.919" class="k">Neighbor:</text><text x="10.02" y="42.919" class="k">2001:db8::11,</text><text x="24.048" y="42.919" class="k">Time:</text><text x="30.06" y="42.919" class="k">10:26:08,</text><text x="40.08" y="42.919" class="k">State:</text><text x="47.094" y="42.919" class="m">IDLE</text></svg><svg x="7056"><use xlink:href="#a"/><use xlink:href="#b" x="55.996" y="41.224"/><use xlink:href="#1" y="2.171"/><use xlink:href="#5" y="4.342"/><use xlink:href="#6" y="8.684"/><use xlink:href="#7" y="10.855"/><use xlink:href="#8" y="13.026"/><use xlink:href="#9" y="17.368"/><use xlink:href="#10" y="19.539"/><use xlink:href="#8" y="21.71"/><use xlink:href="#11" y="26.052"/><use xlink:href="#12" y="28.223"/><use xlink:href="#8" y="30.394"/><use xlink:href="#13" y="34.736"/><use xlink:href="#14" y="36.907"/><text y="42.919" class="k">Neighbor:</text><text x="10.02" y="42.919" class="k">2001:db8::11,</text><text x="24.048" y="42.919" class="k">Time:</text><text x="30.06" y="42.919" class="k">10:26:09,</text><text x="40.08" y="42.919" class="k">State:</text><text x="47.094" y="42.919" class="m">IDLE</text></svg><svg x="7200"><use xlink:href="#a"/><use xlink:href="#b" x="58.996" y="41.224"/><use xlink:href="#1" y="2.171"/><use xlink:href="#5" y="4.342"/><use xlink:href="#6" y="8.684"/><use xlink:href="#7" y="10.855"/><use xlink:href="#8" y="13.026"/><use xlink:href="#9" y="17.368"/><use xlink:href="#10" y="19.539"/><use xlink:href="#8" y="21.71"/><use xlink:href="#11" y="26.052"/><use xlink:href="#12" y="28.223"/><use xlink:href="#8" y="30.394"/><use xlink:href="#13" y="34.736"/><use xlink:href="#14" y="36.907"/><text y="42.919" class="k">Neighbor:</text><text x="10.02" y="42.919" class="k">2001:db8::11,</text><text x="24.048" y="42.919" class="k">Time:</text><text x="30.06" y="42.919" class="k">10:26:10,</text><text x="40.08" y="42.919" class="k">State:</text><text x="47.094" y="42.919" class="s">CONNECT</text></svg><svg x="7344"><use xlink:href="#a"/><use xlink:href="#b" x="58.996" y="41.224"/><use xlink:href="#1" y="2.171"/><use xlink:href="#5" y="4.342"/><use xlink:href="#6" y="8.684"/><use xlink:href="#7" y="10.855"/><use xlink:href="#8" y="13.026"/><use xlink:href="#9" y="17.368"/><use xlink:href="#10" y="19.539"/><use xlink:href="#8" y="21.71"/><use xlink:href="#11" y="26.052"/><use xlink:href="#12" y="28.223"/><use xlink:href="#8" y="30.394"/><use xlink:href="#13" y="34.736"/><use xlink:href="#14" y="36.907"/><text y="42.919" class="k">Neighbor:</text><text x="10.02" y="42.919" class="k">2001:db8::11,</text><text x="24.048" y="42.919" class="k">Time:</text><text x="30.06" y="42.919" class="k">10:26:11,</text><text x="40.08" y="42.919" class="k">State:</text><text x="47.094" y="42.919" class="s">CONNECT</text></svg><svg x="7488"><use xlink:href="#a"/><use xlink:href="#b" x="-.004" y="54.25"/><use xlink:href="#1" y="2.171"/><use xlink:href="#5" y="4.342"/><use xlink:href="#6" y="8.684"/><use xlink:href="#7" y="10.855"/><use xlink:href="#8" y="13.026"/><use xlink:href="#9" y="17.368"/><use xlink:href="#10" y="19.539"/><use xlink:href="#8" y="21.71"/><use xlink:href="#11" y="26.052"/><use xlink:href="#12" y="28.223"/><use xlink:href="#8" y="30.394"/><use xlink:href="#13" y="34.736"/><use xlink:href="#14" y="36.907"/><use xlink:href="#16" y="41.249"/><use xlink:href="#17" y="47.762"/></svg><svg x="7632"><use xlink:href="#a"/><use xlink:href="#b" x="1.996" y="58.592"/><use xlink:href="#1" y="2.171"/><use xlink:href="#5" y="4.342"/><use xlink:href="#6" y="8.684"/><use xlink:href="#7" y="10.855"/><use xlink:href="#8" y="13.026"/><use xlink:href="#9" y="17.368"/><use xlink:href="#10" y="19.539"/><use xlink:href="#8" y="21.71"/><use xlink:href="#11" y="26.052"/><use xlink:href="#12" y="28.223"/><use xlink:href="#8" y="30.394"/><use xlink:href="#13" y="34.736"/><use xlink:href="#14" y="36.907"/><use xlink:href="#16" y="41.249"/><use xlink:href="#17" y="47.762"/><use xlink:href="#1" y="56.446"/><use xlink:href="#2" y="58.617"/></svg><svg x="7776"><use xlink:href="#a"/><use xlink:href="#b" x="2.996" y="58.592"/><use xlink:href="#1" y="2.171"/><use xlink:href="#5" y="4.342"/><use xlink:href="#6" y="8.684"/><use xlink:href="#7" y="10.855"/><use xlink:href="#8" y="13.026"/><use xlink:href="#9" y="17.368"/><use xlink:href="#10" y="19.539"/><use xlink:href="#8" y="21.71"/><use xlink:href="#11" y="26.052"/><use xlink:href="#12" y="28.223"/><use xlink:href="#8" y="30.394"/><use xlink:href="#13" y="34.736"/><use xlink:href="#14" y="36.907"/><use xlink:href="#16" y="41.249"/><use xlink:href="#17" y="47.762"/><use xlink:href="#1" y="56.446"/><text y="60.287" class="g">$</text><text x="2.004" y="60.287" class="k">e</text></svg><svg x="7920"><use xlink:href="#a"/><use xlink:href="#b" x="3.996" y="58.592"/><use xlink:href="#1" y="2.171"/><use xlink:href="#5" y="4.342"/><use xlink:href="#6" y="8.684"/><use xlink:href="#7" y="10.855"/><use xlink:href="#8" y="13.026"/><use xlink:href="#9" y="17.368"/><use xlink:href="#10" y="19.539"/><use xlink:href="#8" y="21.71"/><use xlink:href="#11" y="26.052"/><use xlink:href="#12" y="28.223"/><use xlink:href="#8" y="30.394"/><use xlink:href="#13" y="34.736"/><use xlink:href="#14" y="36.907"/><use xlink:href="#16" y="41.249"/><use xlink:href="#17" y="47.762"/><use xlink:href="#1" y="56.446"/><text y="60.287" class="g">$</text><text x="2.004" y="60.287" class="k">ex</text></svg><svg x="8064"><use xlink:href="#a"/><use xlink:href="#b" x="4.996" y="58.592"/><use xlink:href="#1" y="2.171"/><use xlink:href="#5" y="4.342"/><use xlink:href="#6" y="8.684"/><use xlink:href="#7" y="10.855"/><use xlink:href="#8" y="13.026"/><use xlink:href="#9" y="17.368"/><use xlink:href="#10" y="19.539"/><use xlink:href="#8" y="21.71"/><use xlink:href="#11" y="26.052"/><use xlink:href="#12" y="28.223"/><use xlink:href="#8" y="30.394"/><use xlink:href="#13" y="34.736"/><use xlink:href="#14" y="36.907"/><use xlink:href="#16" y="41.249"/><use xlink:href="#17" y="47.762"/><use xlink:href="#1" y="56.446"/><text y="60.287" class="g">$</text><text x="2.004" y="60.287" class="k">exi</text></svg><svg x="8208"><use xlink:href="#a"/><use xlink:href="#b" x="5.996" y="58.592"/><use xlink:href="#1" y="2.171"/><use xlink:href="#5" y="4.342"/><use xlink:href="#6" y="8.684"/><use xlink:href="#7" y="10.855"/><use xlink:href="#8" y="13.026"/><use xlink:href="#9" y="17.368"/><use xlink:href="#10" y="19.539"/><use xlink:href="#8" y="21.71"/><use xlink:href="#11" y="26.052"/><use xlink:href="#12" y="28.223"/><use xlink:href="#8" y="30.394"/><use xlink:href="#13" y="34.736"/><use xlink:href="#14" y="36.907"/><use xlink:href="#16" y="41.249"/><use xlink:href="#17" y="47.762"/><use xlink:href="#1" y="56.446"/><use xlink:href="#18" y="58.617"/></svg><svg x="8352"><use xlink:href="#a"/><use xlink:href="#b" x="-.004" y="60.763"/><use xlink:href="#1" y="2.171"/><use xlink:href="#5" y="4.342"/><use xlink:href="#6" y="8.684"/><use xlink:href="#7" y="10.855"/><use xlink:href="#8" y="13.026"/><use xlink:href="#9" y="17.368"/><use xlink:href="#10" y="19.539"/><use xlink:href="#8" y="21.71"/><use xlink:href="#11" y="26.052"/><use xlink:href="#12" y="28.223"/><use xlink:href="#8" y="30.394"/><use xlink:href="#13" y="34.736"/><use xlink:href="#14" y="36.907"/><use xlink:href="#16" y="41.249"/><use xlink:href="#17" y="47.762"/><use xlink:href="#1" y="56.446"/><use xlink:href="#18" y="58.617"/></svg><svg x="8496"><use xlink:href="#a"/><use xlink:href="#b" x="-.004" y="62.934"/><use xlink:href="#1" y="2.171"/><use xlink:href="#5" y="4.342"/><use xlink:href="#6" y="8.684"/><use xlink:href="#7" y="10.855"/><use xlink:href="#8" y="13.026"/><use xlink:href="#9" y="17.368"/><use xlink:href="#10" y="19.539"/><use xlink:href="#8" y="21.71"/><use xlink:href="#11" y="26.052"/><use xlink:href="#12" y="28.223"/><use xlink:href="#8" y="30.394"/><use xlink:href="#13" y="34.736"/><use xlink:href="#14" y="36.907"/><use xlink:href="#16" y="41.249"/><use xlink:href="#17" y="47.762"/><use xlink:href="#1" y="56.446"/><use xlink:href="#18" y="58.617"/><text y="62.458" class="k">logout</text></svg></svg></g></g></svg></svg>