<svg xmlns="http://www.w3.org/2000/svg" xmlns:xlink="http://www.w3.org/1999/xlink" width="1480" height="819.85"><rect width="1480" height="819.85" rx="5" ry="5" class="a"/><svg y="0%" x="0%"><circle cx="20" cy="20" r="6" fill="#ff5f58"/><circle cx="40" cy="20" r="6" fill="#ffbd2e"/><circle cx="60" cy="20" r="6" fill="#18c132"/></svg><svg height="759.85" viewBox="0 0 144 75.985" width="1440" x="15" xmlns="http://www.w3.org/2000/svg" xmlns:xlink="http://www.w3.org/1999/xlink" y="50"><style>@keyframes p{0%{transform:translateX(0)}.15%{transform:translateX(-144px)}.78%{transform:translateX(-288px)}6%{transform:translateX(-432px)}9.87%{transform:translateX(-576px)}10.37%{transform:translateX(-720px)}10.98%{transform:translateX(-864px)}11.67%{transform:translateX(-1008px)}12.21%{transform:translateX(-1152px)}13.06%{transform:translateX(-1296px)}13.73%{transform:translateX(-1440px)}15.01%{transform:translateX(-1584px)}15.72%{transform:translateX(-1728px)}16.25%{transform:translateX(-1872px)}16.92%{transform:translateX(-2016px)}18.39%{transform:translateX(-2160px)}31.12%{transform:translateX(-2304px)}34.3%{transform:translateX(-2448px)}37.84%{transform:translateX(-2592px)}41.73%{transform:translateX(-2736px)}46.94%{transform:translateX(-2880px)}51.79%{transform:translateX(-3168px)}53.29%{transform:translateX(-3312px)}57.83%{transform:translateX(-3456px)}63.28%{transform:translateX(-3600px)}66.46%{transform:translateX(-3744px)}70.6%{transform:translateX(-3888px)}76.06%{transform:translateX(-4032px)}76.41%{transform:translateX(-4176px)}86.43%{transform:translateX(-4320px)}87.25%{transform:translateX(-4464px)}88.07%{transform:translateX(-4608px)}90.74%{transform:translateX(-4752px)}to{transform:translateX(-5040px)}}.a{fill:#282d35}.g{fill:#fff;font-weight:700}.k{fill:#b9c0cb}.l,.r,.s{fill:#71bef2;font-weight:700}.r,.s{fill:#e88388}.s{fill:#dbab79}</style><g font-size="1.67" font-family="Monaco,Consolas,Menlo,'Bitstream Vera Sans Mono','Powerline Symbols',monospace"><defs><symbol id="1"><text y="1.67" fill="#d75f00" font-weight="700">nleiva</text><text x="7.014" y="1.67" class="g">in</text><text x="10.02" y="1.67" fill="#5f8700" font-weight="700">~/go/src/github.com/nleiva/xroc/example/ipv6/closeloop</text><text x="65.13" y="1.67" class="g">on</text><text x="68.136" y="1.67" fill="#5f5faf" font-weight="700">master</text><text x="75.15" y="1.67" fill="#0087ff" font-weight="700">[!?]</text></symbol><symbol id="2"><text y="1.67" class="g">$</text></symbol><symbol id="3"><text y="1.67" class="g">$</text><text x="2.004" y="1.67" class="k">go</text></symbol><symbol id="4"><text y="1.67" class="g">$</text><text x="2.004" y="1.67" class="k">go</text><text x="5.01" y="1.67" class="k">run</text></symbol><symbol id="5"><text y="1.67" class="g">$</text><text x="2.004" y="1.67" class="k">go</text><text x="5.01" y="1.67" class="k">run</text><text x="9.018" y="1.67" class="k">main.go</text></symbol><symbol id="6"><text y="1.67" class="l">Telemetry</text><text x="10.02" y="1.67" class="k">config</text><text x="17.034" y="1.67" class="k">applied</text><text x="25.05" y="1.67" class="k">on</text><text x="28.056" y="1.67" class="k">2001:420:2cff:1204::5502:2</text><text x="55.11" y="1.67" class="k">(Request</text><text x="64.128" y="1.67" class="k">ID:</text><text x="68.136" y="1.67" class="k">3673)</text></symbol><symbol id="7"><text y="1.67" class="k">Press</text><text x="6.012" y="1.67" class="k">&apos;Enter&apos;</text><text x="14.028" y="1.67" class="k">to</text><text x="17.034" y="1.67" class="k">continue...</text></symbol><symbol id="8"><text y="1.67" class="l">Interface</text><text x="10.02" y="1.67" class="k">config</text><text x="17.034" y="1.67" class="k">applied</text><text x="25.05" y="1.67" class="k">on</text><text x="28.056" y="1.67" class="k">2001:420:2cff:1204::5502:2</text><text x="55.11" y="1.67" class="k">(Request</text><text x="64.128" y="1.67" class="k">ID:</text><text x="68.136" y="1.67" class="k">3674)</text></symbol><symbol id="9"><text y="1.67" class="l">BGP</text><text x="4.008" y="1.67" class="k">config</text><text x="11.022" y="1.67" class="k">applied</text><text x="19.038" y="1.67" class="k">on</text><text x="22.044" y="1.67" class="k">2001:420:2cff:1204::5502:2</text><text x="49.098" y="1.67" class="k">(Request</text><text x="58.116" y="1.67" class="k">ID:</text><text x="62.124" y="1.67" class="k">3675)</text></symbol><symbol id="10"><text y="1.67" class="k">4)</text></symbol><symbol id="11"><text y="1.67" class="k">Receiving</text><text x="10.02" y="1.67" class="l">Telemetry</text><text x="20.04" y="1.67" class="k">from</text><text x="25.05" y="1.67" class="k">2001:420:2cff:1204::5502:2</text><text x="52.104" y="1.67" class="k">-&gt;</text></symbol><symbol id="12"><text y="1.67" class="k">Neighbor:</text><text x="10.02" y="1.67" class="k">2001:db8::11,</text><text x="24.048" y="1.67" class="k">Time:</text><text x="30.06" y="1.67" class="k">20:01:46,</text><text x="40.08" y="1.67" class="k">State:</text><text x="47.094" y="1.67" fill="#a8cc8c" font-weight="700">ESTABLISHED</text></symbol><symbol id="13"><text x="24.048" y="1.67" class="k">Session</text><text x="32.064" y="1.67" class="k">✅</text></symbol><symbol id="14"><text y="1.67" class="g">$</text><text x="2.004" y="1.67" class="k">exit</text></symbol><symbol id="a"><path fill="transparent" d="M0 0h144v35H0z"/></symbol><symbol id="b"><path fill="#6f7683" d="M0 0h1.102v2.171H0z"/></symbol></defs><path class="a" d="M0 0h144v75.985H0z"/><g style="animation-duration:22.984153s;animation-iteration-count:infinite;animation-name:p;animation-timing-function:steps(1,end)"><svg width="5184"><svg><use xlink:href="#a"/><use xlink:href="#b" x="-.004"/></svg><svg x="144"><use xlink:href="#a"/><use xlink:href="#b" x="-.004"/></svg><svg x="288"><use xlink:href="#a"/><use xlink:href="#b" x="1.996" y="4.317"/><use xlink:href="#1" y="2.171"/><use xlink:href="#2" y="4.342"/></svg><svg x="432"><use xlink:href="#a"/><use xlink:href="#b" x="1.996" y="4.317"/><use xlink:href="#1" y="2.171"/><use xlink:href="#2" y="4.342"/></svg><svg x="576"><use xlink:href="#a"/><use xlink:href="#b" x="2.996" y="4.317"/><use xlink:href="#1" y="2.171"/><text y="6.012" class="g">$</text><text x="2.004" y="6.012" class="k">g</text></svg><svg x="720"><use xlink:href="#a"/><use xlink:href="#b" x="3.996" y="4.317"/><use xlink:href="#1" y="2.171"/><use xlink:href="#3" y="4.342"/></svg><svg x="864"><use xlink:href="#a"/><use xlink:href="#b" x="4.996" y="4.317"/><use xlink:href="#1" y="2.171"/><use xlink:href="#3" y="4.342"/></svg><svg x="1008"><use xlink:href="#a"/><use xlink:href="#b" x="5.996" y="4.317"/><use xlink:href="#1" y="2.171"/><text y="6.012" class="g">$</text><text x="2.004" y="6.012" class="k">go</text><text x="5.01" y="6.012" class="k">r</text></svg><svg x="1152"><use xlink:href="#a"/><use xlink:href="#b" x="6.996" y="4.317"/><use xlink:href="#1" y="2.171"/><text y="6.012" class="g">$</text><text x="2.004" y="6.012" class="k">go</text><text x="5.01" y="6.012" class="k">ru</text></svg><svg x="1296"><use xlink:href="#a"/><use xlink:href="#b" x="7.996" y="4.317"/><use xlink:href="#1" y="2.171"/><use xlink:href="#4" y="4.342"/></svg><svg x="1440"><use xlink:href="#a"/><use xlink:href="#b" x="8.996" y="4.317"/><use xlink:href="#1" y="2.171"/><use xlink:href="#4" y="4.342"/></svg><svg x="1584"><use xlink:href="#a"/><use xlink:href="#b" x="9.996" y="4.317"/><use xlink:href="#1" y="2.171"/><text y="6.012" class="g">$</text><text x="2.004" y="6.012" class="k">go</text><text x="5.01" y="6.012" class="k">run</text><text x="9.018" y="6.012" class="k">m</text></svg><svg x="1728"><use xlink:href="#a"/><use xlink:href="#b" x="10.996" y="4.317"/><use xlink:href="#1" y="2.171"/><text y="6.012" class="g">$</text><text x="2.004" y="6.012" class="k">go</text><text x="5.01" y="6.012" class="k">run</text><text x="9.018" y="6.012" class="k">ma</text></svg><svg x="1872"><use xlink:href="#a"/><use xlink:href="#b" x="11.996" y="4.317"/><use xlink:href="#1" y="2.171"/><text y="6.012" class="g">$</text><text x="2.004" y="6.012" class="k">go</text><text x="5.01" y="6.012" class="k">run</text><text x="9.018" y="6.012" class="k">mai</text></svg><svg x="2016"><use xlink:href="#a"/><use xlink:href="#b" x="16.996" y="4.317"/><use xlink:href="#1" y="2.171"/><use xlink:href="#5" y="4.342"/></svg><svg x="2160"><use xlink:href="#a"/><use xlink:href="#b" x="-.004" y="6.488"/><use xlink:href="#1" y="2.171"/><use xlink:href="#5" y="4.342"/></svg><svg x="2304"><use xlink:href="#a"/><use xlink:href="#b" x="27.996" y="10.83"/><use xlink:href="#1" y="2.171"/><use xlink:href="#5" y="4.342"/><use xlink:href="#6" y="8.684"/><use xlink:href="#7" y="10.855"/></svg><svg x="2448"><use xlink:href="#a"/><use xlink:href="#b" x="-.004" y="13.001"/><use xlink:href="#1" y="2.171"/><use xlink:href="#5" y="4.342"/><use xlink:href="#6" y="8.684"/><use xlink:href="#7" y="10.855"/></svg><svg x="2592"><use xlink:href="#a"/><use xlink:href="#b" x="27.996" y="17.343"/><use xlink:href="#1" y="2.171"/><use xlink:href="#5" y="4.342"/><use xlink:href="#6" y="8.684"/><use xlink:href="#7" y="10.855"/><use xlink:href="#8" y="15.197"/><use xlink:href="#7" y="17.368"/></svg><svg x="2736"><use xlink:href="#a"/><use xlink:href="#b" x="-.004" y="19.514"/><use xlink:href="#1" y="2.171"/><use xlink:href="#5" y="4.342"/><use xlink:href="#6" y="8.684"/><use xlink:href="#7" y="10.855"/><use xlink:href="#8" y="15.197"/><use xlink:href="#7" y="17.368"/></svg><svg x="2880"><use xlink:href="#a"/><use xlink:href="#b" x="27.996" y="23.856"/><use xlink:href="#1" y="2.171"/><use xlink:href="#5" y="4.342"/><use xlink:href="#6" y="8.684"/><use xlink:href="#7" y="10.855"/><use xlink:href="#8" y="15.197"/><use xlink:href="#7" y="17.368"/><use xlink:href="#9" y="21.71"/><use xlink:href="#7" y="23.881"/></svg><svg x="3024"><use xlink:href="#a"/><use xlink:href="#b" x="-.004" y="26.027"/><use xlink:href="#1" y="2.171"/><use xlink:href="#5" y="4.342"/><use xlink:href="#6" y="8.684"/><use xlink:href="#7" y="10.855"/><use xlink:href="#8" y="15.197"/><use xlink:href="#7" y="17.368"/><use xlink:href="#9" y="21.71"/><use xlink:href="#7" y="23.881"/></svg><svg x="3168"><use xlink:href="#a"/><use xlink:href="#b" x="-.004" y="34.711"/><use xlink:href="#1" y="2.171"/><use xlink:href="#5" y="4.342"/><use xlink:href="#6" y="8.684"/><use xlink:href="#7" y="10.855"/><use xlink:href="#8" y="15.197"/><use xlink:href="#7" y="17.368"/><use xlink:href="#9" y="21.71"/><use xlink:href="#7" y="23.881"/><use xlink:href="#10" y="28.223"/><use xlink:href="#11" y="30.394"/></svg><svg x="3312"><use xlink:href="#a"/><use xlink:href="#b" x="55.996" y="34.711"/><use xlink:href="#1" y="2.171"/><use xlink:href="#5" y="4.342"/><use xlink:href="#6" y="8.684"/><use xlink:href="#7" y="10.855"/><use xlink:href="#8" y="15.197"/><use xlink:href="#7" y="17.368"/><use xlink:href="#9" y="21.71"/><use xlink:href="#7" y="23.881"/><use xlink:href="#10" y="28.223"/><use xlink:href="#11" y="30.394"/><text y="36.406" class="k">Neighbor:</text><text x="10.02" y="36.406" class="k">2001:db8::11,</text><text x="24.048" y="36.406" class="k">Time:</text><text x="30.06" y="36.406" class="k">20:01:41,</text><text x="40.08" y="36.406" class="k">State:</text><text x="47.094" y="36.406" class="r">IDLE</text></svg><svg x="3456"><use xlink:href="#a"/><use xlink:href="#b" x="55.996" y="34.711"/><use xlink:href="#1" y="2.171"/><use xlink:href="#5" y="4.342"/><use xlink:href="#6" y="8.684"/><use xlink:href="#7" y="10.855"/><use xlink:href="#8" y="15.197"/><use xlink:href="#7" y="17.368"/><use xlink:href="#9" y="21.71"/><use xlink:href="#7" y="23.881"/><use xlink:href="#10" y="28.223"/><use xlink:href="#11" y="30.394"/><text y="36.406" class="k">Neighbor:</text><text x="10.02" y="36.406" class="k">2001:db8::11,</text><text x="24.048" y="36.406" class="k">Time:</text><text x="30.06" y="36.406" class="k">20:01:42,</text><text x="40.08" y="36.406" class="k">State:</text><text x="47.094" y="36.406" class="r">IDLE</text></svg><svg x="3600"><use xlink:href="#a"/><use xlink:href="#b" x="55.996" y="34.711"/><use xlink:href="#1" y="2.171"/><use xlink:href="#5" y="4.342"/><use xlink:href="#6" y="8.684"/><use xlink:href="#7" y="10.855"/><use xlink:href="#8" y="15.197"/><use xlink:href="#7" y="17.368"/><use xlink:href="#9" y="21.71"/><use xlink:href="#7" y="23.881"/><use xlink:href="#10" y="28.223"/><use xlink:href="#11" y="30.394"/><text y="36.406" class="k">Neighbor:</text><text x="10.02" y="36.406" class="k">2001:db8::11,</text><text x="24.048" y="36.406" class="k">Time:</text><text x="30.06" y="36.406" class="k">20:01:43,</text><text x="40.08" y="36.406" class="k">State:</text><text x="47.094" y="36.406" class="r">IDLE</text></svg><svg x="3744"><use xlink:href="#a"/><use xlink:href="#b" x="58.996" y="34.711"/><use xlink:href="#1" y="2.171"/><use xlink:href="#5" y="4.342"/><use xlink:href="#6" y="8.684"/><use xlink:href="#7" y="10.855"/><use xlink:href="#8" y="15.197"/><use xlink:href="#7" y="17.368"/><use xlink:href="#9" y="21.71"/><use xlink:href="#7" y="23.881"/><use xlink:href="#10" y="28.223"/><use xlink:href="#11" y="30.394"/><text y="36.406" class="k">Neighbor:</text><text x="10.02" y="36.406" class="k">2001:db8::11,</text><text x="24.048" y="36.406" class="k">Time:</text><text x="30.06" y="36.406" class="k">20:01:44,</text><text x="40.08" y="36.406" class="k">State:</text><text x="47.094" y="36.406" class="s">CONNECT</text></svg><svg x="3888"><use xlink:href="#a"/><use xlink:href="#b" x="58.996" y="34.711"/><use xlink:href="#1" y="2.171"/><use xlink:href="#5" y="4.342"/><use xlink:href="#6" y="8.684"/><use xlink:href="#7" y="10.855"/><use xlink:href="#8" y="15.197"/><use xlink:href="#7" y="17.368"/><use xlink:href="#9" y="21.71"/><use xlink:href="#7" y="23.881"/><use xlink:href="#10" y="28.223"/><use xlink:href="#11" y="30.394"/><text y="36.406" class="k">Neighbor:</text><text x="10.02" y="36.406" class="k">2001:db8::11,</text><text x="24.048" y="36.406" class="k">Time:</text><text x="30.06" y="36.406" class="k">20:01:45,</text><text x="40.08" y="36.406" class="k">State:</text><text x="47.094" y="36.406" class="s">CONNECT</text></svg><svg x="4032"><use xlink:href="#a"/><use xlink:href="#b" x="-.004" y="47.737"/><use xlink:href="#1" y="2.171"/><use xlink:href="#5" y="4.342"/><use xlink:href="#6" y="8.684"/><use xlink:href="#7" y="10.855"/><use xlink:href="#8" y="15.197"/><use xlink:href="#7" y="17.368"/><use xlink:href="#9" y="21.71"/><use xlink:href="#7" y="23.881"/><use xlink:href="#10" y="28.223"/><use xlink:href="#11" y="30.394"/><use xlink:href="#12" y="34.736"/><use xlink:href="#13" y="41.249"/></svg><svg x="4176"><use xlink:href="#a"/><use xlink:href="#b" x="1.996" y="52.079"/><use xlink:href="#1" y="2.171"/><use xlink:href="#5" y="4.342"/><use xlink:href="#6" y="8.684"/><use xlink:href="#7" y="10.855"/><use xlink:href="#8" y="15.197"/><use xlink:href="#7" y="17.368"/><use xlink:href="#9" y="21.71"/><use xlink:href="#7" y="23.881"/><use xlink:href="#10" y="28.223"/><use xlink:href="#11" y="30.394"/><use xlink:href="#12" y="34.736"/><use xlink:href="#13" y="41.249"/><use xlink:href="#1" y="49.933"/><use xlink:href="#2" y="52.104"/></svg><svg x="4320"><use xlink:href="#a"/><use xlink:href="#b" x="2.996" y="52.079"/><use xlink:href="#1" y="2.171"/><use xlink:href="#5" y="4.342"/><use xlink:href="#6" y="8.684"/><use xlink:href="#7" y="10.855"/><use xlink:href="#8" y="15.197"/><use xlink:href="#7" y="17.368"/><use xlink:href="#9" y="21.71"/><use xlink:href="#7" y="23.881"/><use xlink:href="#10" y="28.223"/><use xlink:href="#11" y="30.394"/><use xlink:href="#12" y="34.736"/><use xlink:href="#13" y="41.249"/><use xlink:href="#1" y="49.933"/><text y="53.774" class="g">$</text><text x="2.004" y="53.774" class="k">e</text></svg><svg x="4464"><use xlink:href="#a"/><use xlink:href="#b" x="3.996" y="52.079"/><use xlink:href="#1" y="2.171"/><use xlink:href="#5" y="4.342"/><use xlink:href="#6" y="8.684"/><use xlink:href="#7" y="10.855"/><use xlink:href="#8" y="15.197"/><use xlink:href="#7" y="17.368"/><use xlink:href="#9" y="21.71"/><use xlink:href="#7" y="23.881"/><use xlink:href="#10" y="28.223"/><use xlink:href="#11" y="30.394"/><use xlink:href="#12" y="34.736"/><use xlink:href="#13" y="41.249"/><use xlink:href="#1" y="49.933"/><text y="53.774" class="g">$</text><text x="2.004" y="53.774" class="k">ex</text></svg><svg x="4608"><use xlink:href="#a"/><use xlink:href="#b" x="4.996" y="52.079"/><use xlink:href="#1" y="2.171"/><use xlink:href="#5" y="4.342"/><use xlink:href="#6" y="8.684"/><use xlink:href="#7" y="10.855"/><use xlink:href="#8" y="15.197"/><use xlink:href="#7" y="17.368"/><use xlink:href="#9" y="21.71"/><use xlink:href="#7" y="23.881"/><use xlink:href="#10" y="28.223"/><use xlink:href="#11" y="30.394"/><use xlink:href="#12" y="34.736"/><use xlink:href="#13" y="41.249"/><use xlink:href="#1" y="49.933"/><text y="53.774" class="g">$</text><text x="2.004" y="53.774" class="k">exi</text></svg><svg x="4752"><use xlink:href="#a"/><use xlink:href="#b" x="5.996" y="52.079"/><use xlink:href="#1" y="2.171"/><use xlink:href="#5" y="4.342"/><use xlink:href="#6" y="8.684"/><use xlink:href="#7" y="10.855"/><use xlink:href="#8" y="15.197"/><use xlink:href="#7" y="17.368"/><use xlink:href="#9" y="21.71"/><use xlink:href="#7" y="23.881"/><use xlink:href="#10" y="28.223"/><use xlink:href="#11" y="30.394"/><use xlink:href="#12" y="34.736"/><use xlink:href="#13" y="41.249"/><use xlink:href="#1" y="49.933"/><use xlink:href="#14" y="52.104"/></svg><svg x="4896"><use xlink:href="#a"/><use xlink:href="#b" x="-.004" y="54.25"/><use xlink:href="#1" y="2.171"/><use xlink:href="#5" y="4.342"/><use xlink:href="#6" y="8.684"/><use xlink:href="#7" y="10.855"/><use xlink:href="#8" y="15.197"/><use xlink:href="#7" y="17.368"/><use xlink:href="#9" y="21.71"/><use xlink:href="#7" y="23.881"/><use xlink:href="#10" y="28.223"/><use xlink:href="#11" y="30.394"/><use xlink:href="#12" y="34.736"/><use xlink:href="#13" y="41.249"/><use xlink:href="#1" y="49.933"/><use xlink:href="#14" y="52.104"/></svg><svg x="5040"><use xlink:href="#a"/><use xlink:href="#b" x="-.004" y="56.421"/><use xlink:href="#1" y="2.171"/><use xlink:href="#5" y="4.342"/><use xlink:href="#6" y="8.684"/><use xlink:href="#7" y="10.855"/><use xlink:href="#8" y="15.197"/><use xlink:href="#7" y="17.368"/><use xlink:href="#9" y="21.71"/><use xlink:href="#7" y="23.881"/><use xlink:href="#10" y="28.223"/><use xlink:href="#11" y="30.394"/><use xlink:href="#12" y="34.736"/><use xlink:href="#13" y="41.249"/><use xlink:href="#1" y="49.933"/><use xlink:href="#14" y="52.104"/><text y="55.945" class="k">logout</text></svg></svg></g></g></svg></svg>